# xmcd
#
# Track frame offsets: 
#        150
#        14976
#        30160
#        53972
#        75171
#        97150
#        115661
#        131170
#        159178
#        173471
#
# Disc length: 2648 seconds
#
# Revision: 0
# Processed by: cddbd v1.5.2PL0 Copyright (c) Steve Scherf et al.
# Submitted via: ExactAudioCopyFreeDBPlugin 1.0
#
DISCID=6f0a560a
DTITLE=Charles Walker Band - Relentless
DYEAR=2013
DGENRE=Blues
TTITLE0=Hope
TTITLE1=Soul Deep
TTITLE2=Hollywood Hustler
TTITLE3=Funked Up
TTITLE4=In the Sun
TTITLE5=Higher
TTITLE6=Sold
TTITLE7=Momma's Burden
TTITLE8=Welcom Home
TTITLE9=Smooth in Love
EXTD=
EXTT0=
EXTT1=
EXTT2=
EXTT3=
EXTT4=
EXTT5=
EXTT6=
EXTT7=
EXTT8=
EXTT9=
PLAYORDER=
